<mxfile host="app.diagrams.net" modified="2024-05-25T19:00:27.526Z" agent="Mozilla/5.0 (Macintosh; Intel Mac OS X 10_15_7) AppleWebKit/537.36 (KHTML, like Gecko) Chrome/124.0.0.0 Safari/537.36" etag="A2WoiZb33r5FrwAC_78O" version="24.4.8" type="device">
  <diagram name="Page-1" id="-ZYCApN5Wwl5NKDxl_Fw">
    <mxGraphModel dx="1509" dy="837" grid="1" gridSize="10" guides="1" tooltips="1" connect="1" arrows="1" fold="1" page="1" pageScale="1" pageWidth="850" pageHeight="1100" math="0" shadow="0">
      <root>
        <mxCell id="0" />
        <mxCell id="1" parent="0" />
        <mxCell id="LBr9hsCO0pmCrkEfYy0i-32" value="" style="group" parent="1" vertex="1" connectable="0">
          <mxGeometry x="40" y="330" width="500" height="670" as="geometry" />
        </mxCell>
        <mxCell id="LBr9hsCO0pmCrkEfYy0i-30" value="" style="rounded=0;whiteSpace=wrap;html=1;fillColor=none;" parent="LBr9hsCO0pmCrkEfYy0i-32" vertex="1">
          <mxGeometry width="500" height="670" as="geometry" />
        </mxCell>
        <mxCell id="LBr9hsCO0pmCrkEfYy0i-31" value="1" style="ellipse;whiteSpace=wrap;html=1;aspect=fixed;fontSize=27;fontStyle=1;spacing=2;spacingLeft=2;spacingTop=1;" parent="LBr9hsCO0pmCrkEfYy0i-32" vertex="1">
          <mxGeometry x="12.5" y="10.880877650992955" width="47.103155911446066" height="47.103155911446066" as="geometry" />
        </mxCell>
        <mxCell id="LBr9hsCO0pmCrkEfYy0i-33" value="Servers" style="text;html=1;align=center;verticalAlign=middle;whiteSpace=wrap;rounded=0;" parent="LBr9hsCO0pmCrkEfYy0i-32" vertex="1">
          <mxGeometry x="280" y="634.9994024815934" width="75" height="29.919920213546092" as="geometry" />
        </mxCell>
        <mxCell id="LBr9hsCO0pmCrkEfYy0i-34" value="Load balancer" style="text;html=1;align=center;verticalAlign=middle;whiteSpace=wrap;rounded=0;" parent="LBr9hsCO0pmCrkEfYy0i-32" vertex="1">
          <mxGeometry x="110" y="635" width="112.5" height="29.92" as="geometry" />
        </mxCell>
        <mxCell id="LBr9hsCO0pmCrkEfYy0i-35" value="User" style="text;html=1;align=center;verticalAlign=middle;whiteSpace=wrap;rounded=0;" parent="LBr9hsCO0pmCrkEfYy0i-32" vertex="1">
          <mxGeometry x="-14.3125" y="635" width="112.5" height="29.92" as="geometry" />
        </mxCell>
        <mxCell id="A0fZv_exxHm_iGuisejA-2" value="" style="sketch=0;pointerEvents=1;shadow=0;dashed=0;html=1;strokeColor=none;fillColor=#505050;labelPosition=center;verticalLabelPosition=bottom;verticalAlign=top;outlineConnect=0;align=center;shape=mxgraph.office.devices.hard_disk;" vertex="1" parent="LBr9hsCO0pmCrkEfYy0i-32">
          <mxGeometry x="430" y="36" width="40" height="54" as="geometry" />
        </mxCell>
        <mxCell id="A0fZv_exxHm_iGuisejA-5" value="" style="sketch=0;pointerEvents=1;shadow=0;dashed=0;html=1;strokeColor=none;fillColor=#505050;labelPosition=center;verticalLabelPosition=bottom;verticalAlign=top;outlineConnect=0;align=center;shape=mxgraph.office.devices.hard_disk;" vertex="1" parent="LBr9hsCO0pmCrkEfYy0i-32">
          <mxGeometry x="430" y="127.09" width="40" height="54" as="geometry" />
        </mxCell>
        <mxCell id="A0fZv_exxHm_iGuisejA-7" value="" style="sketch=0;pointerEvents=1;shadow=0;dashed=0;html=1;strokeColor=none;fillColor=#505050;labelPosition=center;verticalLabelPosition=bottom;verticalAlign=top;outlineConnect=0;align=center;shape=mxgraph.office.devices.hard_disk;" vertex="1" parent="LBr9hsCO0pmCrkEfYy0i-32">
          <mxGeometry x="430" y="216" width="40" height="54" as="geometry" />
        </mxCell>
        <mxCell id="A0fZv_exxHm_iGuisejA-4" style="edgeStyle=orthogonalEdgeStyle;rounded=0;orthogonalLoop=1;jettySize=auto;html=1;" edge="1" parent="1" source="LBr9hsCO0pmCrkEfYy0i-1" target="A0fZv_exxHm_iGuisejA-2">
          <mxGeometry relative="1" as="geometry" />
        </mxCell>
        <mxCell id="LBr9hsCO0pmCrkEfYy0i-1" value="&lt;div style=&quot;font-size: 8px;&quot;&gt;&lt;font style=&quot;font-size: 8px;&quot;&gt;&lt;br style=&quot;&quot;&gt;&lt;/font&gt;&lt;/div&gt;v1" style="verticalLabelPosition=middle;html=1;verticalAlign=top;strokeWidth=1;align=center;outlineConnect=0;dashed=0;outlineConnect=0;shape=mxgraph.aws3d.dataServer;strokeColor=#6c8ebf;aspect=fixed;fillColor=#dae8fc;labelPosition=center;fontStyle=1;fontSize=33;" parent="1" vertex="1">
          <mxGeometry x="300" y="340" width="123" height="106" as="geometry" />
        </mxCell>
        <mxCell id="A0fZv_exxHm_iGuisejA-6" style="edgeStyle=orthogonalEdgeStyle;rounded=0;orthogonalLoop=1;jettySize=auto;html=1;" edge="1" parent="1" source="LBr9hsCO0pmCrkEfYy0i-4" target="A0fZv_exxHm_iGuisejA-5">
          <mxGeometry relative="1" as="geometry" />
        </mxCell>
        <mxCell id="LBr9hsCO0pmCrkEfYy0i-4" value="&lt;div style=&quot;font-size: 8px;&quot;&gt;&lt;font style=&quot;font-size: 8px;&quot;&gt;&lt;br style=&quot;&quot;&gt;&lt;/font&gt;&lt;/div&gt;v1" style="verticalLabelPosition=middle;html=1;verticalAlign=top;strokeWidth=1;align=center;outlineConnect=0;dashed=0;outlineConnect=0;shape=mxgraph.aws3d.dataServer;strokeColor=#6c8ebf;aspect=fixed;fillColor=#dae8fc;labelPosition=center;fontStyle=1;fontSize=33;" parent="1" vertex="1">
          <mxGeometry x="302" y="431.09000000000003" width="123" height="106" as="geometry" />
        </mxCell>
        <mxCell id="A0fZv_exxHm_iGuisejA-8" style="edgeStyle=orthogonalEdgeStyle;rounded=0;orthogonalLoop=1;jettySize=auto;html=1;" edge="1" parent="1" source="LBr9hsCO0pmCrkEfYy0i-5" target="A0fZv_exxHm_iGuisejA-7">
          <mxGeometry relative="1" as="geometry" />
        </mxCell>
        <mxCell id="LBr9hsCO0pmCrkEfYy0i-5" value="&lt;div style=&quot;font-size: 8px;&quot;&gt;&lt;font style=&quot;font-size: 8px;&quot;&gt;&lt;br style=&quot;&quot;&gt;&lt;/font&gt;&lt;/div&gt;v1" style="verticalLabelPosition=middle;html=1;verticalAlign=top;strokeWidth=1;align=center;outlineConnect=0;dashed=0;outlineConnect=0;shape=mxgraph.aws3d.dataServer;strokeColor=#6c8ebf;aspect=fixed;fillColor=#dae8fc;labelPosition=center;fontStyle=1;fontSize=33;" parent="1" vertex="1">
          <mxGeometry x="300" y="520" width="123" height="106" as="geometry" />
        </mxCell>
        <mxCell id="LBr9hsCO0pmCrkEfYy0i-9" style="edgeStyle=orthogonalEdgeStyle;rounded=0;orthogonalLoop=1;jettySize=auto;html=1;" parent="1" source="LBr9hsCO0pmCrkEfYy0i-6" target="LBr9hsCO0pmCrkEfYy0i-1" edge="1">
          <mxGeometry relative="1" as="geometry" />
        </mxCell>
        <mxCell id="LBr9hsCO0pmCrkEfYy0i-10" style="edgeStyle=orthogonalEdgeStyle;rounded=0;orthogonalLoop=1;jettySize=auto;html=1;" parent="1" source="LBr9hsCO0pmCrkEfYy0i-6" target="LBr9hsCO0pmCrkEfYy0i-4" edge="1">
          <mxGeometry relative="1" as="geometry" />
        </mxCell>
        <mxCell id="LBr9hsCO0pmCrkEfYy0i-11" style="edgeStyle=orthogonalEdgeStyle;rounded=0;orthogonalLoop=1;jettySize=auto;html=1;" parent="1" source="LBr9hsCO0pmCrkEfYy0i-6" target="LBr9hsCO0pmCrkEfYy0i-5" edge="1">
          <mxGeometry relative="1" as="geometry" />
        </mxCell>
        <mxCell id="LBr9hsCO0pmCrkEfYy0i-6" value="" style="verticalLabelPosition=bottom;html=1;verticalAlign=top;strokeWidth=1;align=center;outlineConnect=0;dashed=0;outlineConnect=0;shape=mxgraph.aws3d.elasticLoadBalancing;fillColor=#ECECEC;strokeColor=#5E5E5E;aspect=fixed;" parent="1" vertex="1">
          <mxGeometry x="160" y="440.01" width="92" height="88.17" as="geometry" />
        </mxCell>
        <mxCell id="LBr9hsCO0pmCrkEfYy0i-8" style="edgeStyle=orthogonalEdgeStyle;rounded=0;orthogonalLoop=1;jettySize=auto;html=1;" parent="1" source="LBr9hsCO0pmCrkEfYy0i-7" target="LBr9hsCO0pmCrkEfYy0i-6" edge="1">
          <mxGeometry relative="1" as="geometry" />
        </mxCell>
        <mxCell id="LBr9hsCO0pmCrkEfYy0i-7" value="" style="verticalLabelPosition=bottom;html=1;verticalAlign=top;strokeWidth=1;align=center;outlineConnect=0;dashed=0;outlineConnect=0;shape=mxgraph.aws3d.end_user;strokeColor=none;fillColor=#777777;aspect=fixed;" parent="1" vertex="1">
          <mxGeometry x="50" y="433.86" width="49" height="100.46" as="geometry" />
        </mxCell>
        <mxCell id="LBr9hsCO0pmCrkEfYy0i-36" value="" style="group" parent="1" vertex="1" connectable="0">
          <mxGeometry x="560" y="330" width="490" height="670" as="geometry" />
        </mxCell>
        <mxCell id="LBr9hsCO0pmCrkEfYy0i-37" value="" style="rounded=0;whiteSpace=wrap;html=1;fillColor=none;" parent="LBr9hsCO0pmCrkEfYy0i-36" vertex="1">
          <mxGeometry width="490" height="670" as="geometry" />
        </mxCell>
        <mxCell id="LBr9hsCO0pmCrkEfYy0i-38" value="2" style="ellipse;whiteSpace=wrap;html=1;aspect=fixed;fontSize=27;fontStyle=1;spacing=2;spacingLeft=2;spacingTop=1;" parent="LBr9hsCO0pmCrkEfYy0i-36" vertex="1">
          <mxGeometry x="10" y="11.39091879088325" width="47.103155911446066" height="47.103155911446066" as="geometry" />
        </mxCell>
        <mxCell id="LBr9hsCO0pmCrkEfYy0i-39" value="Servers" style="text;html=1;align=center;verticalAlign=middle;whiteSpace=wrap;rounded=0;" parent="LBr9hsCO0pmCrkEfYy0i-36" vertex="1">
          <mxGeometry x="301.45" y="633.707030722918" width="60" height="31.322416473556064" as="geometry" />
        </mxCell>
        <mxCell id="LBr9hsCO0pmCrkEfYy0i-40" value="Load balancer" style="text;html=1;align=center;verticalAlign=middle;whiteSpace=wrap;rounded=0;" parent="LBr9hsCO0pmCrkEfYy0i-36" vertex="1">
          <mxGeometry x="140.45" y="633.7076562499999" width="90" height="31.3225" as="geometry" />
        </mxCell>
        <mxCell id="LBr9hsCO0pmCrkEfYy0i-41" value="User" style="text;html=1;align=center;verticalAlign=middle;whiteSpace=wrap;rounded=0;" parent="LBr9hsCO0pmCrkEfYy0i-36" vertex="1">
          <mxGeometry y="633.7076562499999" width="90" height="31.3225" as="geometry" />
        </mxCell>
        <mxCell id="uBw3s3g_Egiud1kMh2EL-10" value="&lt;div style=&quot;font-size: 8px;&quot;&gt;&lt;font style=&quot;font-size: 8px;&quot;&gt;&lt;br style=&quot;&quot;&gt;&lt;/font&gt;&lt;/div&gt;v2" style="verticalLabelPosition=middle;html=1;verticalAlign=top;strokeWidth=1;align=center;outlineConnect=0;dashed=0;outlineConnect=0;shape=mxgraph.aws3d.dataServer;strokeColor=#82b366;aspect=fixed;fillColor=#d5e8d4;labelPosition=center;fontStyle=1;fontSize=33;" parent="LBr9hsCO0pmCrkEfYy0i-36" vertex="1">
          <mxGeometry x="265" y="320.00374999999997" width="123" height="106" as="geometry" />
        </mxCell>
        <mxCell id="A0fZv_exxHm_iGuisejA-9" value="" style="sketch=0;pointerEvents=1;shadow=0;dashed=0;html=1;strokeColor=none;fillColor=#505050;labelPosition=center;verticalLabelPosition=bottom;verticalAlign=top;outlineConnect=0;align=center;shape=mxgraph.office.devices.hard_disk;" vertex="1" parent="LBr9hsCO0pmCrkEfYy0i-36">
          <mxGeometry x="430" y="37.1" width="40" height="54" as="geometry" />
        </mxCell>
        <mxCell id="A0fZv_exxHm_iGuisejA-10" value="" style="sketch=0;pointerEvents=1;shadow=0;dashed=0;html=1;strokeColor=none;fillColor=#505050;labelPosition=center;verticalLabelPosition=bottom;verticalAlign=top;outlineConnect=0;align=center;shape=mxgraph.office.devices.hard_disk;" vertex="1" parent="LBr9hsCO0pmCrkEfYy0i-36">
          <mxGeometry x="430" y="128.19000000000003" width="40" height="54" as="geometry" />
        </mxCell>
        <mxCell id="A0fZv_exxHm_iGuisejA-11" value="" style="sketch=0;pointerEvents=1;shadow=0;dashed=0;html=1;strokeColor=none;fillColor=#505050;labelPosition=center;verticalLabelPosition=bottom;verticalAlign=top;outlineConnect=0;align=center;shape=mxgraph.office.devices.hard_disk;" vertex="1" parent="LBr9hsCO0pmCrkEfYy0i-36">
          <mxGeometry x="430" y="217.1" width="40" height="54" as="geometry" />
        </mxCell>
        <mxCell id="A0fZv_exxHm_iGuisejA-15" style="edgeStyle=orthogonalEdgeStyle;rounded=0;orthogonalLoop=1;jettySize=auto;html=1;entryX=-0.025;entryY=0.498;entryDx=0;entryDy=0;entryPerimeter=0;" edge="1" parent="LBr9hsCO0pmCrkEfYy0i-36" source="uBw3s3g_Egiud1kMh2EL-10" target="A0fZv_exxHm_iGuisejA-11">
          <mxGeometry relative="1" as="geometry" />
        </mxCell>
        <mxCell id="A0fZv_exxHm_iGuisejA-12" style="edgeStyle=orthogonalEdgeStyle;rounded=0;orthogonalLoop=1;jettySize=auto;html=1;" edge="1" parent="1" source="uBw3s3g_Egiud1kMh2EL-13" target="A0fZv_exxHm_iGuisejA-9">
          <mxGeometry relative="1" as="geometry" />
        </mxCell>
        <mxCell id="uBw3s3g_Egiud1kMh2EL-13" value="&lt;div style=&quot;font-size: 8px;&quot;&gt;&lt;font style=&quot;font-size: 8px;&quot;&gt;&lt;br style=&quot;&quot;&gt;&lt;/font&gt;&lt;/div&gt;v1" style="verticalLabelPosition=middle;html=1;verticalAlign=top;strokeWidth=1;align=center;outlineConnect=0;dashed=0;outlineConnect=0;shape=mxgraph.aws3d.dataServer;strokeColor=#6c8ebf;aspect=fixed;fillColor=#dae8fc;labelPosition=center;fontStyle=1;fontSize=33;" parent="1" vertex="1">
          <mxGeometry x="825.5" y="341.1" width="123" height="106" as="geometry" />
        </mxCell>
        <mxCell id="A0fZv_exxHm_iGuisejA-13" style="edgeStyle=orthogonalEdgeStyle;rounded=0;orthogonalLoop=1;jettySize=auto;html=1;" edge="1" parent="1" source="uBw3s3g_Egiud1kMh2EL-14" target="A0fZv_exxHm_iGuisejA-10">
          <mxGeometry relative="1" as="geometry" />
        </mxCell>
        <mxCell id="uBw3s3g_Egiud1kMh2EL-14" value="&lt;div style=&quot;font-size: 8px;&quot;&gt;&lt;font style=&quot;font-size: 8px;&quot;&gt;&lt;br style=&quot;&quot;&gt;&lt;/font&gt;&lt;/div&gt;v1" style="verticalLabelPosition=middle;html=1;verticalAlign=top;strokeWidth=1;align=center;outlineConnect=0;dashed=0;outlineConnect=0;shape=mxgraph.aws3d.dataServer;strokeColor=#6c8ebf;aspect=fixed;fillColor=#dae8fc;labelPosition=center;fontStyle=1;fontSize=33;" parent="1" vertex="1">
          <mxGeometry x="827.5" y="432.19000000000005" width="123" height="106" as="geometry" />
        </mxCell>
        <mxCell id="uBw3s3g_Egiud1kMh2EL-16" style="edgeStyle=orthogonalEdgeStyle;rounded=0;orthogonalLoop=1;jettySize=auto;html=1;" parent="1" source="uBw3s3g_Egiud1kMh2EL-19" target="uBw3s3g_Egiud1kMh2EL-13" edge="1">
          <mxGeometry relative="1" as="geometry" />
        </mxCell>
        <mxCell id="uBw3s3g_Egiud1kMh2EL-17" style="edgeStyle=orthogonalEdgeStyle;rounded=0;orthogonalLoop=1;jettySize=auto;html=1;" parent="1" source="uBw3s3g_Egiud1kMh2EL-19" target="uBw3s3g_Egiud1kMh2EL-14" edge="1">
          <mxGeometry relative="1" as="geometry" />
        </mxCell>
        <mxCell id="uBw3s3g_Egiud1kMh2EL-19" value="" style="verticalLabelPosition=bottom;html=1;verticalAlign=top;strokeWidth=1;align=center;outlineConnect=0;dashed=0;outlineConnect=0;shape=mxgraph.aws3d.elasticLoadBalancing;fillColor=#ECECEC;strokeColor=#5E5E5E;aspect=fixed;" parent="1" vertex="1">
          <mxGeometry x="685.5" y="441.11" width="92" height="88.17" as="geometry" />
        </mxCell>
        <mxCell id="uBw3s3g_Egiud1kMh2EL-20" style="edgeStyle=orthogonalEdgeStyle;rounded=0;orthogonalLoop=1;jettySize=auto;html=1;" parent="1" source="uBw3s3g_Egiud1kMh2EL-21" target="uBw3s3g_Egiud1kMh2EL-19" edge="1">
          <mxGeometry relative="1" as="geometry" />
        </mxCell>
        <mxCell id="uBw3s3g_Egiud1kMh2EL-21" value="" style="verticalLabelPosition=bottom;html=1;verticalAlign=top;strokeWidth=1;align=center;outlineConnect=0;dashed=0;outlineConnect=0;shape=mxgraph.aws3d.end_user;strokeColor=none;fillColor=#777777;aspect=fixed;" parent="1" vertex="1">
          <mxGeometry x="575.5" y="434.96000000000004" width="49" height="100.46" as="geometry" />
        </mxCell>
        <mxCell id="uBw3s3g_Egiud1kMh2EL-23" style="edgeStyle=orthogonalEdgeStyle;rounded=0;orthogonalLoop=1;jettySize=auto;html=1;" parent="1" source="uBw3s3g_Egiud1kMh2EL-19" target="uBw3s3g_Egiud1kMh2EL-10" edge="1">
          <mxGeometry relative="1" as="geometry">
            <mxPoint x="779.5" y="485.2011173184359" as="sourcePoint" />
            <mxPoint x="827" y="703" as="targetPoint" />
            <Array as="points">
              <mxPoint x="800" y="485" />
              <mxPoint x="800" y="703" />
            </Array>
          </mxGeometry>
        </mxCell>
        <mxCell id="uBw3s3g_Egiud1kMh2EL-26" value="" style="group" parent="1" vertex="1" connectable="0">
          <mxGeometry x="1070" y="330" width="500" height="670" as="geometry" />
        </mxCell>
        <mxCell id="uBw3s3g_Egiud1kMh2EL-27" value="" style="rounded=0;whiteSpace=wrap;html=1;fillColor=none;" parent="uBw3s3g_Egiud1kMh2EL-26" vertex="1">
          <mxGeometry width="500" height="670" as="geometry" />
        </mxCell>
        <mxCell id="uBw3s3g_Egiud1kMh2EL-28" value="3" style="ellipse;whiteSpace=wrap;html=1;aspect=fixed;fontSize=27;fontStyle=1;spacing=2;spacingLeft=2;spacingTop=1;" parent="uBw3s3g_Egiud1kMh2EL-26" vertex="1">
          <mxGeometry x="10" y="11.39091879088325" width="47.103155911446066" height="47.103155911446066" as="geometry" />
        </mxCell>
        <mxCell id="uBw3s3g_Egiud1kMh2EL-29" value="Servers" style="text;html=1;align=center;verticalAlign=middle;whiteSpace=wrap;rounded=0;" parent="uBw3s3g_Egiud1kMh2EL-26" vertex="1">
          <mxGeometry x="301.45" y="633.707030722918" width="60" height="31.322416473556064" as="geometry" />
        </mxCell>
        <mxCell id="uBw3s3g_Egiud1kMh2EL-30" value="Load balancer" style="text;html=1;align=center;verticalAlign=middle;whiteSpace=wrap;rounded=0;" parent="uBw3s3g_Egiud1kMh2EL-26" vertex="1">
          <mxGeometry x="140.45" y="633.7076562499999" width="90" height="31.3225" as="geometry" />
        </mxCell>
        <mxCell id="uBw3s3g_Egiud1kMh2EL-31" value="User" style="text;html=1;align=center;verticalAlign=middle;whiteSpace=wrap;rounded=0;" parent="uBw3s3g_Egiud1kMh2EL-26" vertex="1">
          <mxGeometry y="633.7076562499999" width="90" height="31.3225" as="geometry" />
        </mxCell>
        <mxCell id="A0fZv_exxHm_iGuisejA-19" style="edgeStyle=orthogonalEdgeStyle;rounded=0;orthogonalLoop=1;jettySize=auto;html=1;" edge="1" parent="uBw3s3g_Egiud1kMh2EL-26" source="uBw3s3g_Egiud1kMh2EL-32" target="A0fZv_exxHm_iGuisejA-18">
          <mxGeometry relative="1" as="geometry">
            <Array as="points">
              <mxPoint x="420" y="373" />
              <mxPoint x="420" y="247" />
            </Array>
          </mxGeometry>
        </mxCell>
        <mxCell id="uBw3s3g_Egiud1kMh2EL-32" value="&lt;div style=&quot;font-size: 8px;&quot;&gt;&lt;font style=&quot;font-size: 8px;&quot;&gt;&lt;br style=&quot;&quot;&gt;&lt;/font&gt;&lt;/div&gt;v2" style="verticalLabelPosition=middle;html=1;verticalAlign=top;strokeWidth=1;align=center;outlineConnect=0;dashed=0;outlineConnect=0;shape=mxgraph.aws3d.dataServer;strokeColor=#82b366;aspect=fixed;fillColor=#d5e8d4;labelPosition=center;fontStyle=1;fontSize=33;" parent="uBw3s3g_Egiud1kMh2EL-26" vertex="1">
          <mxGeometry x="265" y="320.00374999999997" width="123" height="106" as="geometry" />
        </mxCell>
        <mxCell id="A0fZv_exxHm_iGuisejA-20" style="edgeStyle=orthogonalEdgeStyle;rounded=0;orthogonalLoop=1;jettySize=auto;html=1;" edge="1" parent="uBw3s3g_Egiud1kMh2EL-26" source="uBw3s3g_Egiud1kMh2EL-33" target="A0fZv_exxHm_iGuisejA-17">
          <mxGeometry relative="1" as="geometry">
            <Array as="points">
              <mxPoint x="410" y="468" />
              <mxPoint x="410" y="158" />
            </Array>
          </mxGeometry>
        </mxCell>
        <mxCell id="uBw3s3g_Egiud1kMh2EL-33" value="&lt;div style=&quot;font-size: 8px;&quot;&gt;&lt;font style=&quot;font-size: 8px;&quot;&gt;&lt;br style=&quot;&quot;&gt;&lt;/font&gt;&lt;/div&gt;v2" style="verticalLabelPosition=middle;html=1;verticalAlign=top;strokeWidth=1;align=center;outlineConnect=0;dashed=0;outlineConnect=0;shape=mxgraph.aws3d.dataServer;strokeColor=#82b366;aspect=fixed;fillColor=#d5e8d4;labelPosition=center;fontStyle=1;fontSize=33;" parent="uBw3s3g_Egiud1kMh2EL-26" vertex="1">
          <mxGeometry x="267" y="415.36359375000006" width="123" height="106" as="geometry" />
        </mxCell>
        <mxCell id="A0fZv_exxHm_iGuisejA-21" style="edgeStyle=orthogonalEdgeStyle;rounded=0;orthogonalLoop=1;jettySize=auto;html=1;" edge="1" parent="uBw3s3g_Egiud1kMh2EL-26" source="uBw3s3g_Egiud1kMh2EL-34" target="A0fZv_exxHm_iGuisejA-16">
          <mxGeometry relative="1" as="geometry">
            <Array as="points">
              <mxPoint x="400" y="561" />
              <mxPoint x="400" y="67" />
            </Array>
          </mxGeometry>
        </mxCell>
        <mxCell id="uBw3s3g_Egiud1kMh2EL-34" value="&lt;div style=&quot;font-size: 8px;&quot;&gt;&lt;font style=&quot;font-size: 8px;&quot;&gt;&lt;br style=&quot;&quot;&gt;&lt;/font&gt;&lt;/div&gt;v2" style="verticalLabelPosition=middle;html=1;verticalAlign=top;strokeWidth=1;align=center;outlineConnect=0;dashed=0;outlineConnect=0;shape=mxgraph.aws3d.dataServer;strokeColor=#82b366;aspect=fixed;fillColor=#d5e8d4;labelPosition=center;fontStyle=1;fontSize=33;" parent="uBw3s3g_Egiud1kMh2EL-26" vertex="1">
          <mxGeometry x="265" y="508.44124999999997" width="123" height="106" as="geometry" />
        </mxCell>
        <mxCell id="A0fZv_exxHm_iGuisejA-16" value="" style="sketch=0;pointerEvents=1;shadow=0;dashed=0;html=1;strokeColor=none;fillColor=#505050;labelPosition=center;verticalLabelPosition=bottom;verticalAlign=top;outlineConnect=0;align=center;shape=mxgraph.office.devices.hard_disk;" vertex="1" parent="uBw3s3g_Egiud1kMh2EL-26">
          <mxGeometry x="440" y="40" width="40" height="54" as="geometry" />
        </mxCell>
        <mxCell id="A0fZv_exxHm_iGuisejA-17" value="" style="sketch=0;pointerEvents=1;shadow=0;dashed=0;html=1;strokeColor=none;fillColor=#505050;labelPosition=center;verticalLabelPosition=bottom;verticalAlign=top;outlineConnect=0;align=center;shape=mxgraph.office.devices.hard_disk;" vertex="1" parent="uBw3s3g_Egiud1kMh2EL-26">
          <mxGeometry x="440" y="131.09000000000003" width="40" height="54" as="geometry" />
        </mxCell>
        <mxCell id="A0fZv_exxHm_iGuisejA-18" value="" style="sketch=0;pointerEvents=1;shadow=0;dashed=0;html=1;strokeColor=none;fillColor=#505050;labelPosition=center;verticalLabelPosition=bottom;verticalAlign=top;outlineConnect=0;align=center;shape=mxgraph.office.devices.hard_disk;" vertex="1" parent="uBw3s3g_Egiud1kMh2EL-26">
          <mxGeometry x="440" y="220" width="40" height="54" as="geometry" />
        </mxCell>
        <mxCell id="uBw3s3g_Egiud1kMh2EL-41" style="edgeStyle=orthogonalEdgeStyle;rounded=0;orthogonalLoop=1;jettySize=auto;html=1;" parent="1" source="uBw3s3g_Egiud1kMh2EL-43" target="uBw3s3g_Egiud1kMh2EL-33" edge="1">
          <mxGeometry relative="1" as="geometry">
            <Array as="points">
              <mxPoint x="1310" y="485" />
              <mxPoint x="1310" y="798" />
            </Array>
          </mxGeometry>
        </mxCell>
        <mxCell id="uBw3s3g_Egiud1kMh2EL-42" style="edgeStyle=orthogonalEdgeStyle;rounded=0;orthogonalLoop=1;jettySize=auto;html=1;" parent="1" source="uBw3s3g_Egiud1kMh2EL-43" target="uBw3s3g_Egiud1kMh2EL-34" edge="1">
          <mxGeometry relative="1" as="geometry">
            <Array as="points">
              <mxPoint x="1310" y="485" />
              <mxPoint x="1310" y="891" />
            </Array>
          </mxGeometry>
        </mxCell>
        <mxCell id="uBw3s3g_Egiud1kMh2EL-43" value="" style="verticalLabelPosition=bottom;html=1;verticalAlign=top;strokeWidth=1;align=center;outlineConnect=0;dashed=0;outlineConnect=0;shape=mxgraph.aws3d.elasticLoadBalancing;fillColor=#ECECEC;strokeColor=#5E5E5E;aspect=fixed;" parent="1" vertex="1">
          <mxGeometry x="1195.5" y="441.11" width="92" height="88.17" as="geometry" />
        </mxCell>
        <mxCell id="uBw3s3g_Egiud1kMh2EL-44" style="edgeStyle=orthogonalEdgeStyle;rounded=0;orthogonalLoop=1;jettySize=auto;html=1;" parent="1" source="uBw3s3g_Egiud1kMh2EL-45" target="uBw3s3g_Egiud1kMh2EL-43" edge="1">
          <mxGeometry relative="1" as="geometry" />
        </mxCell>
        <mxCell id="uBw3s3g_Egiud1kMh2EL-45" value="" style="verticalLabelPosition=bottom;html=1;verticalAlign=top;strokeWidth=1;align=center;outlineConnect=0;dashed=0;outlineConnect=0;shape=mxgraph.aws3d.end_user;strokeColor=none;fillColor=#777777;aspect=fixed;" parent="1" vertex="1">
          <mxGeometry x="1085.5" y="434.96000000000004" width="49" height="100.46" as="geometry" />
        </mxCell>
        <mxCell id="uBw3s3g_Egiud1kMh2EL-46" style="edgeStyle=orthogonalEdgeStyle;rounded=0;orthogonalLoop=1;jettySize=auto;html=1;" parent="1" source="uBw3s3g_Egiud1kMh2EL-43" target="uBw3s3g_Egiud1kMh2EL-32" edge="1">
          <mxGeometry relative="1" as="geometry">
            <mxPoint x="1289.5" y="485.2011173184359" as="sourcePoint" />
            <mxPoint x="1337" y="703" as="targetPoint" />
            <Array as="points">
              <mxPoint x="1310" y="485" />
              <mxPoint x="1310" y="703" />
            </Array>
          </mxGeometry>
        </mxCell>
      </root>
    </mxGraphModel>
  </diagram>
</mxfile>
